<svg width="80" height="80" viewBox="0 0 80 80" fill="none" xmlns="http://www.w3.org/2000/svg">
<rect width="80" height="80" rx="40" fill="#09824B"/>
<path d="M40 20.5C36.1433 20.5 32.3731 21.6437 29.1664 23.7863C25.9596 25.929 23.4603 28.9745 21.9844 32.5377C20.5084 36.1008 20.1223 40.0216 20.8747 43.8043C21.6271 47.5869 23.4843 51.0615 26.2114 53.7886C28.9386 56.5157 32.4131 58.3729 36.1957 59.1253C39.9784 59.8777 43.8992 59.4916 47.4623 58.0156C51.0255 56.5397 54.071 54.0404 56.2137 50.8336C58.3564 47.6269 59.5 43.8567 59.5 40C59.4945 34.83 57.4383 29.8732 53.7826 26.2174C50.1268 22.5617 45.1701 20.5055 40 20.5ZM40 56.5C36.7366 56.5 33.5465 55.5323 30.8331 53.7192C28.1197 51.9062 26.0048 49.3293 24.756 46.3143C23.5072 43.2993 23.1804 39.9817 23.8171 36.781C24.4537 33.5803 26.0252 30.6403 28.3327 28.3327C30.6403 26.0252 33.5803 24.4537 36.781 23.817C39.9817 23.1804 43.2993 23.5071 46.3143 24.756C49.3293 26.0048 51.9062 28.1197 53.7193 30.8331C55.5323 33.5465 56.5 36.7366 56.5 40C56.495 44.3745 54.7551 48.5685 51.6618 51.6618C48.5685 54.7551 44.3746 56.495 40 56.5ZM47.5 43.75C47.5 45.1424 46.9469 46.4777 45.9623 47.4623C44.9778 48.4469 43.6424 49 42.25 49H41.5V50.5C41.5 50.8978 41.342 51.2794 41.0607 51.5607C40.7794 51.842 40.3978 52 40 52C39.6022 52 39.2207 51.842 38.9393 51.5607C38.658 51.2794 38.5 50.8978 38.5 50.5V49H35.5C35.1022 49 34.7207 48.842 34.4393 48.5607C34.158 48.2794 34 47.8978 34 47.5C34 47.1022 34.158 46.7206 34.4393 46.4393C34.7207 46.158 35.1022 46 35.5 46H42.25C42.8467 46 43.419 45.7629 43.841 45.341C44.263 44.919 44.5 44.3467 44.5 43.75C44.5 43.1533 44.263 42.581 43.841 42.159C43.419 41.7371 42.8467 41.5 42.25 41.5H37.75C36.3576 41.5 35.0223 40.9469 34.0377 39.9623C33.0531 38.9777 32.5 37.6424 32.5 36.25C32.5 34.8576 33.0531 33.5223 34.0377 32.5377C35.0223 31.5531 36.3576 31 37.75 31H38.5V29.5C38.5 29.1022 38.658 28.7206 38.9393 28.4393C39.2207 28.158 39.6022 28 40 28C40.3978 28 40.7794 28.158 41.0607 28.4393C41.342 28.7206 41.5 29.1022 41.5 29.5V31H44.5C44.8978 31 45.2794 31.158 45.5607 31.4393C45.842 31.7206 46 32.1022 46 32.5C46 32.8978 45.842 33.2794 45.5607 33.5607C45.2794 33.842 44.8978 34 44.5 34H37.75C37.1533 34 36.581 34.2371 36.159 34.659C35.7371 35.081 35.5 35.6533 35.5 36.25C35.5 36.8467 35.7371 37.419 36.159 37.841C36.581 38.2629 37.1533 38.5 37.75 38.5H42.25C43.6424 38.5 44.9778 39.0531 45.9623 40.0377C46.9469 41.0223 47.5 42.3576 47.5 43.75Z" fill="white"/>
</svg>
