<svg width="80" height="80" viewBox="0 0 80 80" fill="none" xmlns="http://www.w3.org/2000/svg">
<rect width="80" height="80" rx="40" fill="#09824B"/>
<path d="M58 25H22C21.2044 25 20.4413 25.3161 19.8787 25.8787C19.3161 26.4413 19 27.2044 19 28V52C19 52.7956 19.3161 53.5587 19.8787 54.1213C20.4413 54.6839 21.2044 55 22 55H58C58.7957 55 59.5587 54.6839 60.1213 54.1213C60.6839 53.5587 61 52.7956 61 52V28C61 27.2044 60.6839 26.4413 60.1213 25.8787C59.5587 25.3161 58.7957 25 58 25ZM58 28V32.5H22V28H58ZM58 52H22V35.5H58V52ZM55 47.5C55 47.8978 54.842 48.2794 54.5607 48.5607C54.2794 48.842 53.8978 49 53.5 49H47.5C47.1022 49 46.7206 48.842 46.4393 48.5607C46.158 48.2794 46 47.8978 46 47.5C46 47.1022 46.158 46.7206 46.4393 46.4393C46.7206 46.158 47.1022 46 47.5 46H53.5C53.8978 46 54.2794 46.158 54.5607 46.4393C54.842 46.7206 55 47.1022 55 47.5ZM43 47.5C43 47.8978 42.842 48.2794 42.5607 48.5607C42.2794 48.842 41.8978 49 41.5 49H38.5C38.1022 49 37.7206 48.842 37.4393 48.5607C37.158 48.2794 37 47.8978 37 47.5C37 47.1022 37.158 46.7206 37.4393 46.4393C37.7206 46.158 38.1022 46 38.5 46H41.5C41.8978 46 42.2794 46.158 42.5607 46.4393C42.842 46.7206 43 47.1022 43 47.5Z" fill="white"/>
</svg>
