<svg width="80" height="80" viewBox="0 0 80 80" fill="none" xmlns="http://www.w3.org/2000/svg">
<rect width="80" height="80" rx="40" fill="#09824B"/>
<path d="M43.6505 33.5089C44.5848 33.5089 45.3423 34.2516 45.3423 35.1679V44.4988C45.3423 45.4151 44.5848 46.1578 43.6505 46.1578C42.7162 46.1578 41.9588 45.4151 41.9588 44.4988V35.1679C41.9588 34.2516 42.7162 33.5089 43.6505 33.5089Z" fill="white"/>
<path fill-rule="evenodd" clip-rule="evenodd" d="M26.7731 22.8567C22.2652 22.8567 18.5727 26.4001 18.5724 30.8186L18.5703 36.0018C18.5701 36.4419 18.7483 36.8641 19.0656 37.1753C19.3829 37.4866 19.8133 37.6615 20.262 37.6615C21.817 37.6615 22.8664 38.7172 22.8664 40.0015C22.8664 41.3703 21.7274 42.5031 20.262 42.5031C19.3277 42.5031 18.5703 43.2458 18.5703 44.1621V49.1798C18.5703 53.5983 22.2605 57.1424 26.771 57.1424H53.2268C57.7373 57.1424 61.4275 53.5983 61.4275 49.1798V44.1621C61.4275 43.2458 60.67 42.5031 59.7357 42.5031C58.2704 42.5031 57.1314 41.3703 57.1314 40.0015C57.1314 38.6317 58.2715 37.498 59.7357 37.498C60.1845 37.498 60.6149 37.3231 60.9322 37.0119C61.2495 36.7006 61.4276 36.2785 61.4275 35.8383L61.4254 30.8186C61.425 26.4001 57.7326 22.8567 53.2247 22.8567H26.7731ZM21.9558 30.8193C21.9558 28.2726 24.0929 26.1747 26.7731 26.1747H41.9588V29.684C41.9588 30.6002 42.7162 31.3429 43.6505 31.3429C44.5848 31.3429 45.3423 30.6002 45.3423 29.684V26.1747H53.2247C55.9049 26.1747 58.0419 28.2733 58.0419 30.8199L58.0434 34.4151C55.5665 35.1212 53.7479 37.3395 53.7479 40.0015C53.7479 42.6645 55.5673 44.8809 58.044 45.5863V49.1798C58.044 51.7268 55.9087 53.8244 53.2268 53.8244H45.3423V51.1486C45.3423 50.2323 44.5848 49.4896 43.6505 49.4896C42.7162 49.4896 41.9588 50.2323 41.9588 51.1486V53.8244H26.771C24.0891 53.8244 21.9538 51.7268 21.9538 49.1798V45.5863C24.4304 44.8809 26.2498 42.6645 26.2498 40.0015C26.2498 37.2815 24.3867 35.225 21.9543 34.567L21.9558 30.8193Z" fill="white"/>
</svg>
